P1
# Un exemple de fichier pbm
13 13
0 0 0 0 0 0 1 0 0 0 0 0 0 
0 0 0 0 0 0 1 0 0 0 0 0 0 
0 0 0 0 0 1 1 1 0 0 0 0 0
0 0 0 0 0 0 1 0 0 0 0 0 0
0 0 0 0 1 1 1 1 1 0 0 0 0
0 0 0 0 0 0 1 0 0 0 0 0 0
0 0 0 1 1 1 1 1 1 1 0 0 0
0 0 0 0 0 0 1 0 0 0 0 0 0
0 0 1 1 1 1 1 1 1 1 1 0 0
0 0 0 0 0 0 1 0 0 0 0 0 0
0 0 0 0 0 0 1 0 0 0 0 0 0
0 0 0 0 0 0 1 0 0 0 0 0 0
1 1 1 1 1 1 1 1 1 1 1 1 1

